<svg width="30" height="33" viewBox="0 0 30 33" fill="none" xmlns="http://www.w3.org/2000/svg">
<g clip-path="url(#clip0_3_112)">
<mask id="mask0_3_112" style="mask-type:alpha" maskUnits="userSpaceOnUse" x="-2" y="0" width="32" height="33">
<path d="M30 16.5C30 7.66344 22.8366 0.5 14 0.5C5.16344 0.5 -2 7.66344 -2 16.5C-2 25.3366 5.16344 32.5 14 32.5C22.8366 32.5 30 25.3366 30 16.5Z" fill="white"/>
</mask>
<g mask="url(#mask0_3_112)">
<path d="M30 0.5H-2V32.5H30V0.5Z" fill="#064061"/>
<path d="M14.1637 5.14145C5.43592 6.52379 -0.518715 14.7196 0.863626 23.4474C2.24597 32.1752 10.4418 38.1298 19.1696 36.7475C27.8974 35.3651 33.852 27.1693 32.4696 18.4415C31.0873 9.71375 22.8914 3.75911 14.1637 5.14145Z" fill="#98DAFF"/>
<path d="M5.12732 18.3552C5.14275 19.2391 5.62573 20.0787 6.47 20.6891C7.31428 21.2996 8.4507 21.631 9.62926 21.6105C10.8078 21.5899 11.932 21.219 12.7544 20.5794C13.5769 19.9399 14.0303 19.084 14.0149 18.2001" fill="#064061"/>
<path d="M6.39839 14.7769C6.38982 14.2861 6.08444 13.8934 5.71631 13.8998C5.34818 13.9062 5.05669 14.3093 5.06526 14.8002C5.07382 15.291 5.3792 15.6837 5.74734 15.6773C6.11547 15.6709 6.40696 15.2678 6.39839 14.7769Z" fill="#064061"/>
<path d="M13.5084 14.6528C13.4999 14.162 13.1945 13.7693 12.8264 13.7757C12.4582 13.7821 12.1667 14.1852 12.1753 14.6761C12.1839 15.1669 12.4892 15.5596 12.8574 15.5532C13.2255 15.5468 13.517 15.1436 13.5084 14.6528Z" fill="#064061"/>
</g>
</g>
<defs>
<clipPath id="clip0_3_112">
<rect width="32" height="32" fill="white" transform="translate(-2 0.5)"/>
</clipPath>
</defs>
</svg>
